<svg width="247" height="28" viewBox="0 0 247 28" fill="none" xmlns="http://www.w3.org/2000/svg">
<path d="M117.773 4.21006C116.971 4.21006 116.361 4.42793 115.943 4.86368C115.542 5.29943 115.342 5.94434 115.342 6.79841V8.4194H119.577V9.9881H115.394V22.1717H113.538V6.71997C113.538 5.46502 113.895 4.47151 114.61 3.73945C115.342 3.00739 116.37 2.64136 117.695 2.64136C118.218 2.64136 118.723 2.71979 119.211 2.87666C119.699 3.0161 120.109 3.22526 120.44 3.50414L119.812 4.88983C119.272 4.43665 118.592 4.21006 117.773 4.21006Z" fill="black"/>
<path d="M126.952 22.3024C125.627 22.3024 124.433 22.0061 123.37 21.4135C122.307 20.8034 121.47 19.9668 120.86 18.9035C120.25 17.8403 119.945 16.6376 119.945 15.2955C119.945 13.9534 120.25 12.7508 120.86 11.6875C121.47 10.6243 122.307 9.79637 123.37 9.20375C124.433 8.61113 125.627 8.31482 126.952 8.31482C128.277 8.31482 129.471 8.61113 130.534 9.20375C131.597 9.79637 132.425 10.6243 133.018 11.6875C133.628 12.7508 133.933 13.9534 133.933 15.2955C133.933 16.6376 133.628 17.8403 133.018 18.9035C132.425 19.9668 131.597 20.8034 130.534 21.4135C129.471 22.0061 128.277 22.3024 126.952 22.3024ZM126.952 20.6552C127.928 20.6552 128.8 20.4374 129.567 20.0016C130.351 19.5484 130.961 18.9123 131.397 18.093C131.832 17.2738 132.05 16.3413 132.05 15.2955C132.05 14.2497 131.832 13.3172 131.397 12.498C130.961 11.6788 130.351 11.0513 129.567 10.6156C128.8 10.1624 127.928 9.93581 126.952 9.93581C125.976 9.93581 125.096 10.1624 124.311 10.6156C123.544 11.0513 122.934 11.6788 122.481 12.498C122.045 13.3172 121.828 14.2497 121.828 15.2955C121.828 16.3413 122.045 17.2738 122.481 18.093C122.934 18.9123 123.544 19.5484 124.311 20.0016C125.096 20.4374 125.976 20.6552 126.952 20.6552Z" fill="black"/>
<path d="M149.592 8.4194V22.1717H147.814V19.6617C147.326 20.4984 146.655 21.152 145.801 21.6226C144.947 22.0758 143.971 22.3024 142.873 22.3024C141.078 22.3024 139.657 21.8056 138.611 20.8121C137.583 19.8012 137.069 18.3283 137.069 16.3936V8.4194H138.925V16.2106C138.925 17.6573 139.283 18.7554 139.997 19.5049C140.712 20.2544 141.731 20.6291 143.056 20.6291C144.503 20.6291 145.644 20.1934 146.481 19.3219C147.318 18.4329 147.736 17.2041 147.736 15.6354V8.4194H149.592Z" fill="black"/>
<path d="M182.994 2.77208V22.1717H181.216V19.4526C180.659 20.3764 179.918 21.0823 178.994 21.5703C178.088 22.0584 177.059 22.3024 175.909 22.3024C174.619 22.3024 173.451 22.0061 172.405 21.4135C171.36 20.8208 170.54 19.9929 169.948 18.9297C169.355 17.8665 169.059 16.6551 169.059 15.2955C169.059 13.936 169.355 12.7246 169.948 11.6614C170.54 10.5981 171.36 9.77894 172.405 9.20375C173.451 8.61113 174.619 8.31482 175.909 8.31482C177.024 8.31482 178.027 8.55012 178.916 9.02073C179.822 9.47391 180.563 10.145 181.138 11.0339V2.77208H182.994ZM176.066 20.6552C177.024 20.6552 177.887 20.4374 178.654 20.0016C179.438 19.5484 180.049 18.9123 180.484 18.093C180.937 17.2738 181.164 16.3413 181.164 15.2955C181.164 14.2497 180.937 13.3172 180.484 12.498C180.049 11.6788 179.438 11.0513 178.654 10.6156C177.887 10.1624 177.024 9.93581 176.066 9.93581C175.09 9.93581 174.209 10.1624 173.425 10.6156C172.658 11.0513 172.048 11.6788 171.595 12.498C171.159 13.3172 170.941 14.2497 170.941 15.2955C170.941 16.3413 171.159 17.2738 171.595 18.093C172.048 18.9123 172.658 19.5484 173.425 20.0016C174.209 20.4374 175.09 20.6552 176.066 20.6552Z" fill="black"/>
<path d="M192.452 8.31482C194.247 8.31482 195.624 8.768 196.583 9.67436C197.541 10.5633 198.021 11.888 198.021 13.6484V22.1717H196.243V20.0278C195.824 20.7424 195.206 21.3002 194.386 21.701C193.585 22.1019 192.626 22.3024 191.51 22.3024C189.977 22.3024 188.757 21.9364 187.85 21.2043C186.944 20.4722 186.491 19.5049 186.491 18.3022C186.491 17.1344 186.909 16.1932 187.746 15.4785C188.6 14.7639 189.951 14.4066 191.798 14.4066H196.164V13.57C196.164 12.3847 195.833 11.4871 195.171 10.877C194.508 10.2495 193.541 9.93581 192.269 9.93581C191.397 9.93581 190.561 10.084 189.759 10.3803C188.957 10.6592 188.269 11.0513 187.693 11.5568L186.857 10.1711C187.554 9.57849 188.391 9.12531 189.367 8.81157C190.343 8.4804 191.371 8.31482 192.452 8.31482ZM191.798 20.8383C192.844 20.8383 193.742 20.603 194.491 20.1323C195.241 19.6443 195.798 18.9471 196.164 18.0408V15.7923H191.85C189.497 15.7923 188.321 16.6115 188.321 18.2499C188.321 19.0517 188.626 19.6879 189.236 20.1585C189.846 20.6117 190.7 20.8383 191.798 20.8383Z" fill="black"/>
<path d="M208.736 21.335C208.387 21.6488 207.952 21.8928 207.429 22.0671C206.923 22.2239 206.392 22.3024 205.834 22.3024C204.544 22.3024 203.551 21.9538 202.853 21.2566C202.156 20.5594 201.808 19.5746 201.808 18.3022V5.41273H203.664V8.4194H207.847V9.9881H203.664V18.1976C203.664 19.0168 203.864 19.6443 204.265 20.0801C204.683 20.4984 205.276 20.7075 206.043 20.7075C206.426 20.7075 206.793 20.6465 207.141 20.5245C207.507 20.4025 207.821 20.2282 208.082 20.0016L208.736 21.335Z" fill="black"/>
<path d="M211.592 8.4194H213.449V22.1717H211.592V8.4194ZM212.534 5.41273C212.15 5.41273 211.828 5.282 211.566 5.02055C211.305 4.7591 211.174 4.44536 211.174 4.07933C211.174 3.73073 211.305 3.42571 211.566 3.16426C211.828 2.90281 212.15 2.77208 212.534 2.77208C212.917 2.77208 213.239 2.90281 213.501 3.16426C213.762 3.40828 213.893 3.70459 213.893 4.05319C213.893 4.43665 213.762 4.7591 213.501 5.02055C213.239 5.282 212.917 5.41273 212.534 5.41273Z" fill="black"/>
<path d="M223.712 22.3024C222.387 22.3024 221.193 22.0061 220.13 21.4135C219.067 20.8034 218.23 19.9668 217.62 18.9035C217.01 17.8403 216.705 16.6376 216.705 15.2955C216.705 13.9534 217.01 12.7508 217.62 11.6875C218.23 10.6243 219.067 9.79637 220.13 9.20375C221.193 8.61113 222.387 8.31482 223.712 8.31482C225.037 8.31482 226.231 8.61113 227.294 9.20375C228.357 9.79637 229.185 10.6243 229.778 11.6875C230.388 12.7508 230.693 13.9534 230.693 15.2955C230.693 16.6376 230.388 17.8403 229.778 18.9035C229.185 19.9668 228.357 20.8034 227.294 21.4135C226.231 22.0061 225.037 22.3024 223.712 22.3024ZM223.712 20.6552C224.688 20.6552 225.559 20.4374 226.326 20.0016C227.111 19.5484 227.721 18.9123 228.157 18.093C228.592 17.2738 228.81 16.3413 228.81 15.2955C228.81 14.2497 228.592 13.3172 228.157 12.498C227.721 11.6788 227.111 11.0513 226.326 10.6156C225.559 10.1624 224.688 9.93581 223.712 9.93581C222.736 9.93581 221.856 10.1624 221.071 10.6156C220.304 11.0513 219.694 11.6788 219.241 12.498C218.805 13.3172 218.587 14.2497 218.587 15.2955C218.587 16.3413 218.805 17.2738 219.241 18.093C219.694 18.9123 220.304 19.5484 221.071 20.0016C221.856 20.4374 222.736 20.6552 223.712 20.6552Z" fill="black"/>
<path d="M154.88 9.83532C155.89 8.82438 157.881 8.31889 159.607 8.31889L159.607 9.99215C158.282 9.99215 156.98 10.3669 156.265 11.1164C155.551 11.8659 155.193 12.9553 155.193 14.3845V22.1757H153.337V14.2015C153.337 12.2842 153.851 10.8288 154.88 9.83532Z" fill="black"/>
<path d="M159.607 8.31889C159.666 8.31889 159.725 8.31947 159.784 8.32064V8.31889C161.51 8.31889 163.323 8.82437 164.334 9.83531C165.363 10.8288 165.877 12.2842 165.877 14.2015V22.1757L164.02 22.1757V14.3845C164.02 12.9553 163.663 11.8659 162.949 11.1164C162.234 10.3669 160.932 9.99215 159.607 9.99215L159.607 8.31889Z" fill="black"/>
<path d="M240.73 8.31889C239.004 8.31889 237.014 8.82438 236.003 9.83532C234.974 10.8288 234.46 12.2842 234.46 14.2015V22.1757H236.316V14.3845C236.316 12.9553 236.674 11.8659 237.388 11.1164C238.103 10.3669 239.405 9.99215 240.73 9.99215L240.73 8.31889Z" fill="black"/>
<path d="M240.73 8.31889C242.456 8.31889 244.446 8.82438 245.457 9.83532C246.486 10.8288 247 12.2842 247 14.2015V22.1757H245.144V14.3845C245.144 12.9553 244.786 11.8659 244.072 11.1164C243.357 10.3669 242.055 9.99215 240.73 9.99215L240.73 8.31889Z" fill="black"/>
<path d="M50.6035 2.87543C52.0915 2.87543 53.3708 3.21408 54.3681 3.88649L53.1928 6.77449C52.2662 6.09728 51.3684 5.95606 50.6035 5.95606C48.9666 5.95606 47.8436 6.81588 47.8436 8.92669V9.99573H52.5279V13.1078H47.8436V22.0357H44.4787V8.92669C44.4787 4.87214 46.9651 2.87543 50.6035 2.87543Z" fill="black"/>
<path d="M79.9961 7.96092C75.8521 7.96092 73.1088 10.3203 73.1088 14.8883V22.0235H76.4862V14.9005C76.4862 12.2926 77.8993 11.0416 80.0168 11.0416C82.1344 11.0416 83.5309 12.2926 83.5309 14.9005V22.0357H86.8917V14.9005C86.8834 10.2918 84.1153 7.96092 79.9961 7.96092Z" fill="black"/>
<path d="M66.2217 15.2917C66.2217 17.8426 64.7547 19.1466 62.6952 19.1466C60.6356 19.1466 59.1645 17.8997 59.1645 15.2917V8.32364H55.8079V15.2917C55.8079 20.1817 58.8578 22.2191 62.0736 22.2191C63.2542 22.2683 65.3535 21.8036 66.2176 20.5374L66.219 20.537L66.2178 20.7759L66.2487 21.4751C66.2487 23.4717 65.2082 24.9244 62.4622 24.9244C60.7089 24.9244 58.733 24.3283 56.8579 23.2493L56.1339 26.2188L57.3318 26.8077C58.9247 27.5909 60.6812 27.9987 62.4622 27.9987C66.3906 27.9987 69.5751 26.1899 69.5751 20.7759V19.8455L69.5783 19.843V8.32364H66.2217V15.2917Z" fill="black"/>
<path fill-rule="evenodd" clip-rule="evenodd" d="M89.818 15.1776C89.818 11.0171 92.9218 7.96092 97.3269 7.96092C101.728 7.96092 104.836 11.013 104.836 15.1776C104.836 19.3422 101.732 22.3943 97.3269 22.3943C92.9218 22.3943 89.818 19.3381 89.818 15.1776ZM93.2036 15.1776C93.2036 17.594 94.8695 19.3136 97.3269 19.3136C99.7801 19.3136 101.421 17.5899 101.421 15.1776C101.421 12.7652 99.7925 11.0416 97.3269 11.0416C94.8612 11.0416 93.2036 12.7612 93.2036 15.1776Z" fill="black"/>
<mask id="mask0_42_324" style="mask-type:alpha" maskUnits="userSpaceOnUse" x="3" y="0" width="32" height="28">
<path fill-rule="evenodd" clip-rule="evenodd" d="M8.27459 12.4596C6.31605 10.501 6.31605 7.32562 8.27459 5.36708C10.2331 3.40854 13.4086 3.40854 15.3671 5.36708L17.7313 7.73125L23.5472 13.5472L25.9114 11.183L23.6418 8.91339L23.6417 8.91341L18.9134 4.18507L20.1236 2.97487C20.1142 2.98419 20.1048 2.99354 20.0954 3.00291L18.9133 4.18499L17.7313 3.00291C14.467 -0.261327 9.17466 -0.261327 5.91042 3.00291C2.64619 6.26714 2.64619 11.5595 5.91042 14.8238L17.7313 26.6446L18.9133 27.8267L20.0954 26.6446L31.9163 14.8238C35.1805 11.5595 35.1805 6.26714 31.9163 3.00291C29.0569 0.143492 24.6412 -0.211122 21.3957 1.93906L23.8435 4.38679C25.7076 3.49625 28.008 3.82301 29.5521 5.36708C31.5106 7.32562 31.5106 10.501 29.5521 12.4596L18.9133 23.0983L8.27459 12.4596Z" fill="black"/>
</mask>
<g mask="url(#mask0_42_324)">
<path d="M4.80774 1.83065L9.48971 5.92737L13.0012 12.3651L23.5356 16.4618L32.8995 -1.09558L42.2635 11.1946L18.8536 29.9225L-0.459473 8.8536L4.80774 1.83065Z" fill="url(#paint0_linear_42_324)"/>
<path d="M15 0L26.4619 10.6093L24.1209 17.047L11.8307 8.26836L3 1.5L15 0Z" fill="url(#paint1_linear_42_324)"/>
<path d="M27.0471 8.85358L32.8995 0.660139L25 0L18.2684 0.660139L27.0471 8.85358Z" fill="#FFD500"/>
</g>
<defs>
<linearGradient id="paint0_linear_42_324" x1="8.31922" y1="9.43885" x2="29.8045" y2="10.5036" gradientUnits="userSpaceOnUse">
<stop stop-color="#4F96B1"/>
<stop offset="0.458333" stop-color="#C2C554"/>
<stop offset="1" stop-color="#FFD500"/>
</linearGradient>
<linearGradient id="paint1_linear_42_324" x1="4.22251" y1="2.4159" x2="25.8766" y2="12.9503" gradientUnits="userSpaceOnUse">
<stop stop-color="#5899A7"/>
<stop offset="1" stop-color="#0279FB"/>
</linearGradient>
</defs>
</svg>
